<svg width="60" height="60" viewBox="0 0 60 60" fill="none" xmlns="http://www.w3.org/2000/svg">
<path d="M38.495 11.0249C39.8507 10.1188 41.427 9.59789 43.0556 9.51785C44.6842 9.43781 46.304 9.80161 47.742 10.5704C49.18 11.3392 50.3821 12.4841 51.2202 13.8829C52.0582 15.2816 52.5005 16.8818 52.5 18.5124C52.5013 20.8028 51.6293 23.0076 50.0616 24.6775C48.4939 26.3474 46.3485 27.3567 44.0625 27.4999H42.5M38.495 11.0249C37.8764 9.26571 36.7269 7.74201 35.2052 6.66412C33.6835 5.58623 31.8648 5.00732 30 5.00732C28.1353 5.00732 26.3165 5.58623 24.7948 6.66412C23.2732 7.74201 22.1236 9.26571 21.505 11.0249M38.495 11.0249C39.0862 12.7084 39.1637 14.5297 38.7175 16.2574M21.505 11.0249C22.6513 11.7921 23.6058 12.8125 24.295 14.0074M21.505 11.0249C20.1493 10.1188 18.573 9.59789 16.9444 9.51785C15.3158 9.43781 13.696 9.80161 12.258 10.5704C10.82 11.3392 9.61786 12.4841 8.77985 13.8829C7.94185 15.2816 7.49949 16.8818 7.5 18.5124C7.4987 20.8028 8.37074 23.0076 9.93844 24.6775C11.5061 26.3474 13.6515 27.3567 15.9375 27.4999H17.5M42.5 34.9999V24.9999M17.5 34.9999V24.9999M45 36.2499C41.0025 34.6949 35.75 33.7499 30 33.7499C24.25 33.7499 19 34.6949 15 36.2499M42.5 42.4999C42.5 45.8151 41.183 48.9945 38.8388 51.3387C36.4946 53.6829 33.3152 54.9999 30 54.9999C26.6848 54.9999 23.5054 53.6829 21.1612 51.3387C18.817 48.9945 17.5 45.8151 17.5 42.4999" stroke="#3B0D00" stroke-width="4" stroke-linecap="round" stroke-linejoin="round"/>
</svg>
