<svg width="84" height="81" viewBox="0 0 84 81" fill="none" xmlns="http://www.w3.org/2000/svg">
<path d="M58.0265 80.7601C57.9753 80.7623 57.9243 80.7643 57.8731 80.7661C57.5491 80.7779 57.2251 80.7871 56.9011 80.7939C48.8031 80.9521 40.8057 79.2627 33.773 76.0963C28.8977 73.9015 18.8265 68.9261 18.0379 63.6025C17.2935 58.5777 21.706 52.3699 25.5837 48.8541C29.1939 45.5809 33.5961 43.0301 38.2803 41.1251C42.2453 39.5125 46.4793 39.1169 50.3479 37.5637C58.2661 34.3845 66.6639 33.2633 74.7393 35.9213C79.0981 37.3559 83.3671 40.3553 83.3627 44.4691C83.3585 48.2439 79.8327 51.3817 78.1323 54.9289C75.0231 61.4149 77.9857 69.4325 73.1713 75.1335C69.7831 79.1463 63.6371 80.5279 58.0265 80.7601Z" fill="url(#paint0_linear_115_2247)"/>
<path d="M48.4024 25.5717C50.0733 28.4051 51.2574 31.4145 51.7701 34.0789C53.3639 42.3619 57.0854 49.5857 53.6027 58.0729C51.2649 63.7701 46.0457 68.3319 40.0205 69.7073C34.1147 71.0553 28.4063 66.3599 23.8162 63.3133C18.8318 60.0049 14.355 55.9335 10.5884 51.2857C6.18415 45.8513 2.04795 39.3783 0.784753 32.3889C-0.0314467 27.8733 0.570753 22.6907 4.18935 20.7341C7.50975 18.9387 11.9488 20.5427 15.8776 20.3469C23.0614 19.9891 28.6978 13.5633 36.0042 15.0785C40.978 16.1097 45.4501 20.5657 48.4024 25.5717Z" fill="url(#paint1_linear_115_2247)"/>
<path d="M28.0091 79.9885H57.9905C64.8389 79.9885 70.3905 74.4369 70.3905 67.5885V21.8453C70.3905 14.9969 64.8389 9.44531 57.9905 9.44531H28.0091C21.1607 9.44531 15.6091 14.9969 15.6091 21.8453V67.5885C15.6091 74.4367 21.1609 79.9885 28.0091 79.9885Z" fill="url(#paint2_linear_115_2247)"/>
<path d="M24.8764 42.957C23.0746 37.712 19.893 33.4708 16.903 30.2416C13.913 27.0122 34.046 7.03075 50.3914 20.15C47.953 29.4349 49.4136 36.4068 49.4136 36.4068C49.4136 36.4068 26.471 47.5991 24.8764 42.957Z" fill="#F7F0E8"/>
<path d="M49.9108 22.6932C50.0166 22.1366 50.0722 21.787 50.3914 20.5718C34.0458 7.4526 13.913 27.4342 16.903 30.6634C17.084 30.8588 18.5594 32.6116 18.7414 32.8146C19.6636 31.326 20.4588 28.3698 21.6626 28.9062C24.2708 30.0682 35.6106 30.1408 42.1108 23.7302C47.4662 18.4484 48.8572 32.6738 48.8572 32.6738C48.8572 32.6738 48.9746 32.6616 49.1564 32.6374C49.0488 30.2026 49.1378 26.7402 49.9432 22.6954C49.9326 22.6946 49.9214 22.6938 49.9108 22.6932Z" fill="#EAD0C0"/>
<path d="M22.8831 1.78277C30.5143 -0.898026 38.4313 1.98457 41.6207 9.45237C44.4113 6.02117 57.5675 2.18637 56.9695 13.2872C56.3715 24.388 43.6141 21.5624 40.6239 17.9294C38.4311 23.3788 26.2717 29.4338 19.8929 24.9936C20.0923 29.6358 13.5141 42.1494 4.9427 36.0944C-3.6287 30.0394 2.1519 17.122 11.7201 19.5442C10.7237 13.6908 13.1157 5.21377 22.8831 1.78277Z" fill="#F7F0E8"/>
<path d="M54.3915 6.94238C58.8965 15.209 48.8083 20.9836 40.3373 15.4378C39.0853 19.2406 29.6959 27.6914 18.8457 23.0434C17.9067 27.48 12.7947 38.0436 1.73588 32.0224C1.63788 31.969 1.54368 31.9206 1.44788 31.8704C2.09888 33.4514 3.23008 34.937 4.94288 36.147C13.5143 42.202 20.0925 29.6884 19.8931 25.0462C26.2719 29.4866 38.4313 23.4316 40.6241 17.982C43.6141 21.615 56.3717 24.4406 56.9697 13.3398C57.1507 9.97598 56.0651 7.98998 54.3915 6.94238Z" fill="#F9E9E4"/>
<path d="M62.4138 51.9209H23.5862V52.1209H62.4138V51.9209Z" fill="#8E3C30"/>
<path d="M62.4138 57.0625H23.5862V57.2625H62.4138V57.0625Z" fill="#8E3C30"/>
<path d="M62.4138 62.2041H23.5862V62.4041H62.4138V62.2041Z" fill="#8E3C30"/>
<path d="M62.4138 67.3467H23.5862V67.5467H62.4138V67.3467Z" fill="#8E3C30"/>
<path d="M62.4138 72.4883H23.5862V72.6883H62.4138V72.4883Z" fill="#8E3C30"/>
<defs>
<linearGradient id="paint0_linear_115_2247" x1="49.3295" y1="45.6743" x2="54.286" y2="75.0024" gradientUnits="userSpaceOnUse">
<stop stop-color="#CDDBB5"/>
<stop offset="0.9458" stop-color="#B8CB93"/>
</linearGradient>
<linearGradient id="paint1_linear_115_2247" x1="19.6352" y1="48.2162" x2="43.3987" y2="29.6135" gradientUnits="userSpaceOnUse">
<stop stop-color="#F9F5DD"/>
<stop offset="0.5" stop-color="#F8EEAC"/>
<stop offset="1" stop-color="#F0E8AF"/>
</linearGradient>
<linearGradient id="paint2_linear_115_2247" x1="42.9999" y1="44.7169" x2="42.9999" y2="130.656" gradientUnits="userSpaceOnUse">
<stop stop-color="#CEE6F4"/>
<stop offset="0.5" stop-color="#ABD5ED"/>
<stop offset="0.772" stop-color="#9CCFEA"/>
<stop offset="1" stop-color="#95CCE9"/>
</linearGradient>
</defs>
</svg>
