<svg width="28" height="29" viewBox="0 0 28 29" fill="none" xmlns="http://www.w3.org/2000/svg">
<path d="M20.1979 2.75391H7.80208C4.78177 2.75391 2.33333 5.20235 2.33333 8.22266V20.6185C2.33333 23.6388 4.78177 26.0872 7.80208 26.0872H20.1979C23.2182 26.0872 25.6667 23.6388 25.6667 20.6185V8.22266C25.6667 5.20235 23.2182 2.75391 20.1979 2.75391Z" fill="#E67E22"/>
<path d="M14.0008 5.30664C11.5255 5.30664 11.2148 5.31749 10.2426 5.36169C9.27226 5.40617 8.6099 5.55975 8.03039 5.78516C7.43084 6.01794 6.92233 6.32939 6.41575 6.83616C5.9087 7.34284 5.59726 7.85134 5.36374 8.45062C5.1377 9.03031 4.98394 9.69294 4.94028 10.6628C4.8968 11.6351 4.88541 11.9459 4.88541 14.4213C4.88541 16.8967 4.89634 17.2065 4.94046 18.1786C4.98512 19.149 5.1387 19.8113 5.36392 20.3908C5.59689 20.9904 5.90834 21.4989 6.41511 22.0055C6.9216 22.5125 7.43011 22.8247 8.02921 23.0575C8.60917 23.2829 9.27162 23.4365 10.2418 23.4809C11.214 23.5251 11.5245 23.536 13.9997 23.536C16.4753 23.536 16.785 23.5251 17.7572 23.4809C18.7275 23.4365 19.3906 23.2829 19.9706 23.0575C20.5699 22.8247 21.0776 22.5125 21.5841 22.0055C22.0911 21.4989 22.4025 20.9904 22.6361 20.3911C22.8601 19.8113 23.014 19.1488 23.0595 18.1788C23.1032 17.2066 23.1146 16.8967 23.1146 14.4213C23.1146 11.9459 23.1032 11.6353 23.0595 10.663C23.014 9.69267 22.8601 9.0304 22.6361 8.4509C22.4025 7.85134 22.0911 7.34284 21.5841 6.83616C21.0771 6.32921 20.5701 6.01776 19.97 5.78525C19.389 5.55975 18.7263 5.40608 17.7559 5.36169C16.7837 5.31749 16.4741 5.30664 13.998 5.30664H14.0008ZM13.1831 6.94918C13.4259 6.94882 13.6967 6.94918 14.0008 6.94918C16.4345 6.94918 16.7229 6.95793 17.6839 7.00159C18.5726 7.04224 19.0549 7.19072 19.3762 7.3155C19.8016 7.48065 20.1048 7.67816 20.4237 7.99727C20.7427 8.31628 20.9401 8.62006 21.1057 9.04544C21.2305 9.36628 21.3792 9.84862 21.4196 10.7373C21.4633 11.6982 21.4728 11.9867 21.4728 14.4192C21.4728 16.8517 21.4633 17.1404 21.4196 18.1011C21.379 18.9898 21.2305 19.4722 21.1057 19.7931C20.9406 20.2185 20.7427 20.5213 20.4237 20.8402C20.1047 21.1592 19.8018 21.3566 19.3762 21.5219C19.0553 21.6472 18.5726 21.7953 17.6839 21.8359C16.7231 21.8796 16.4345 21.8891 14.0008 21.8891C11.567 21.8891 11.2786 21.8796 10.3178 21.8359C9.42912 21.7949 8.94677 21.6464 8.62521 21.5217C8.19992 21.3564 7.89604 21.159 7.57703 20.84C7.25802 20.521 7.0606 20.2179 6.89499 19.7924C6.77021 19.4714 6.62155 18.9891 6.58108 18.1004C6.53742 17.1396 6.52867 16.851 6.52867 14.4169C6.52867 11.9829 6.53742 11.6959 6.58108 10.735C6.62173 9.84634 6.77021 9.364 6.89499 9.04271C7.06024 8.61733 7.25802 8.31354 7.57713 7.99453C7.89623 7.67552 8.19992 7.47801 8.6253 7.31249C8.94659 7.18716 9.42912 7.03905 10.3178 6.99822C11.1586 6.96021 11.4845 6.94881 13.1831 6.9469V6.94918ZM18.8662 8.46257C18.2623 8.46257 17.7724 8.95202 17.7724 9.55595C17.7724 10.1598 18.2623 10.6497 18.8662 10.6497C19.47 10.6497 19.9599 10.1598 19.9599 9.55595C19.9599 8.95211 19.47 8.4622 18.8662 8.4622V8.46257ZM14.0008 9.74052C11.4159 9.74052 9.32011 11.8363 9.32011 14.4213C9.32011 17.0063 11.4159 19.1011 14.0008 19.1011C16.5858 19.1011 18.6809 17.0063 18.6809 14.4213C18.6809 11.8364 16.5856 9.74052 14.0006 9.74052H14.0008ZM14.0008 11.3831C15.6787 11.3831 17.0391 12.7432 17.0391 14.4213C17.0391 16.0992 15.6787 17.4596 14.0008 17.4596C12.3229 17.4596 10.9626 16.0992 10.9626 14.4213C10.9626 12.7432 12.3228 11.3831 14.0008 11.3831Z" fill="white"/>
</svg>
