<svg width="124" height="60" viewBox="0 0 124 60" fill="none" xmlns="http://www.w3.org/2000/svg">
<rect width="124" height="60" fill="white"/>
<rect x="10" y="8" width="44" height="44" rx="22" fill="#E67E22"/>
<path d="M35.9643 21.1451C36.597 20.7223 37.3326 20.4792 38.0926 20.4418C38.8526 20.4045 39.6085 20.5742 40.2796 20.933C40.9507 21.2918 41.5117 21.8261 41.9027 22.4788C42.2938 23.1316 42.5002 23.8783 42.5 24.6393C42.5006 25.7081 42.0937 26.737 41.3621 27.5163C40.6305 28.2956 39.6293 28.7666 38.5625 28.8334H37.8333M35.9643 21.1451C35.6756 20.3242 35.1392 19.6131 34.4291 19.1101C33.719 18.6071 32.8702 18.3369 32 18.3369C31.1298 18.3369 30.281 18.6071 29.5709 19.1101C28.8608 19.6131 28.3244 20.3242 28.0357 21.1451M35.9643 21.1451C36.2402 21.9307 36.2764 22.7807 36.0682 23.5869M28.0357 21.1451C28.5706 21.5031 29.0161 21.9793 29.3377 22.5369M28.0357 21.1451C27.403 20.7223 26.6674 20.4792 25.9074 20.4418C25.1474 20.4045 24.3915 20.5742 23.7204 20.933C23.0493 21.2918 22.4883 21.8261 22.0973 22.4788C21.7062 23.1316 21.4998 23.8783 21.5 24.6393C21.4994 25.7081 21.9063 26.737 22.6379 27.5163C23.3695 28.2956 24.3707 28.7666 25.4375 28.8334H26.1667M37.8333 32.3334V27.6668M26.1667 32.3334V27.6668M39 32.9168C37.1345 32.1911 34.6833 31.7501 32 31.7501C29.3167 31.7501 26.8667 32.1911 25 32.9168M37.8333 35.8334C37.8333 37.3805 37.2188 38.8643 36.1248 39.9582C35.0308 41.0522 33.5471 41.6668 32 41.6668C30.4529 41.6668 28.9692 41.0522 27.8752 39.9582C26.7812 38.8643 26.1667 37.3805 26.1667 35.8334" stroke="#3B0D00" stroke-width="2" stroke-linecap="round" stroke-linejoin="round"/>
<path d="M67.06 38.6C65.4733 38.6 64.0933 38.3133 62.92 37.74C61.7467 37.1533 60.8467 36.3267 60.22 35.26C59.5933 34.1933 59.28 32.9533 59.28 31.54C59.28 29.58 59.6467 27.84 60.38 26.32C61.1267 24.8 62.1333 23.6267 63.4 22.8C64.6667 21.96 66.0733 21.54 67.62 21.54C69.06 21.54 70.1533 21.9133 70.9 22.66C71.6467 23.3933 72.02 24.3667 72.02 25.58C72.02 26.3933 71.8733 27.0467 71.58 27.54C71.3 28.0333 70.8933 28.28 70.36 28.28C69.9867 28.28 69.6933 28.1933 69.48 28.02C69.2667 27.8467 69.16 27.5933 69.16 27.26C69.16 27.14 69.1867 26.92 69.24 26.6C69.32 26.2 69.36 25.88 69.36 25.64C69.36 24.4267 68.7133 23.82 67.42 23.82C66.54 23.82 65.7 24.1067 64.9 24.68C64.1 25.2533 63.4533 26.1 62.96 27.22C62.4667 28.3267 62.22 29.6467 62.22 31.18C62.22 32.78 62.6667 34.02 63.56 34.9C64.4533 35.7667 65.7733 36.2 67.52 36.2C68.3867 36.2 69.26 36.0933 70.14 35.88C71.0333 35.6533 72.02 35.3133 73.1 34.86C73.3 34.78 73.4667 34.74 73.6 34.74C73.8133 34.74 73.9733 34.82 74.08 34.98C74.1867 35.14 74.24 35.3467 74.24 35.6C74.24 36.4133 73.8 37.0133 72.92 37.4C71.9733 37.8133 70.9867 38.12 69.96 38.32C68.9467 38.5067 67.98 38.6 67.06 38.6ZM82.6756 32.36C82.849 32.36 82.9823 32.4467 83.0756 32.62C83.169 32.7933 83.2156 33.0133 83.2156 33.28C83.2156 33.92 83.0223 34.3 82.6356 34.42C81.8356 34.7 80.9556 34.86 79.9956 34.9C79.7423 36.02 79.2423 36.92 78.4956 37.6C77.749 38.2667 76.9023 38.6 75.9556 38.6C75.1556 38.6 74.469 38.4067 73.8956 38.02C73.3356 37.6333 72.909 37.12 72.6156 36.48C72.3223 35.84 72.1756 35.1467 72.1756 34.4C72.1756 33.3867 72.369 32.4867 72.7556 31.7C73.1423 30.9 73.6756 30.28 74.3556 29.84C75.0356 29.3867 75.789 29.16 76.6156 29.16C77.629 29.16 78.4423 29.5133 79.0556 30.22C79.6823 30.9133 80.049 31.7733 80.1556 32.8C80.7823 32.76 81.529 32.6267 82.3956 32.4C82.5023 32.3733 82.5956 32.36 82.6756 32.36ZM76.1156 36.48C76.5423 36.48 76.909 36.3067 77.2156 35.96C77.5356 35.6133 77.749 35.1133 77.8556 34.46C77.4423 34.18 77.1223 33.8133 76.8956 33.36C76.6823 32.9067 76.5756 32.4267 76.5756 31.92C76.5756 31.7067 76.5956 31.4933 76.6356 31.28H76.5356C76.0023 31.28 75.5556 31.54 75.1956 32.06C74.849 32.5667 74.6756 33.2867 74.6756 34.22C74.6756 34.9533 74.8156 35.5133 75.0956 35.9C75.389 36.2867 75.729 36.48 76.1156 36.48ZM91.6991 32.36C91.8724 32.36 92.0057 32.4467 92.0991 32.62C92.1924 32.7933 92.2391 33.0133 92.2391 33.28C92.2391 33.92 92.0457 34.3 91.6591 34.42C90.8591 34.7 89.9791 34.86 89.0191 34.9C88.7657 36.02 88.2657 36.92 87.5191 37.6C86.7724 38.2667 85.9257 38.6 84.9791 38.6C84.1791 38.6 83.4924 38.4067 82.9191 38.02C82.3591 37.6333 81.9324 37.12 81.6391 36.48C81.3457 35.84 81.1991 35.1467 81.1991 34.4C81.1991 33.3867 81.3924 32.4867 81.7791 31.7C82.1657 30.9 82.6991 30.28 83.3791 29.84C84.0591 29.3867 84.8124 29.16 85.6391 29.16C86.6524 29.16 87.4657 29.5133 88.0791 30.22C88.7057 30.9133 89.0724 31.7733 89.1791 32.8C89.8057 32.76 90.5524 32.6267 91.4191 32.4C91.5257 32.3733 91.6191 32.36 91.6991 32.36ZM85.1391 36.48C85.5657 36.48 85.9324 36.3067 86.2391 35.96C86.5591 35.6133 86.7724 35.1133 86.8791 34.46C86.4657 34.18 86.1457 33.8133 85.9191 33.36C85.7057 32.9067 85.5991 32.4267 85.5991 31.92C85.5991 31.7067 85.6191 31.4933 85.6591 31.28H85.5591C85.0257 31.28 84.5791 31.54 84.2191 32.06C83.8724 32.5667 83.6991 33.2867 83.6991 34.22C83.6991 34.9533 83.8391 35.5133 84.1191 35.9C84.4124 36.2867 84.7524 36.48 85.1391 36.48ZM102.083 34.04C102.256 34.04 102.389 34.12 102.483 34.28C102.589 34.44 102.643 34.66 102.643 34.94C102.643 35.4733 102.516 35.8867 102.263 36.18C101.663 36.9133 101.056 37.5 100.443 37.94C99.8292 38.38 99.1025 38.6 98.2625 38.6C97.2358 38.6 96.4092 38.3067 95.7825 37.72C95.1558 37.1333 94.8425 36.3533 94.8425 35.38C94.8425 34.86 95.1092 34.4867 95.6425 34.26C96.2292 34.0067 96.6492 33.74 96.9025 33.46C97.1558 33.1667 97.2825 32.8133 97.2825 32.4C97.2825 32.16 97.2292 31.98 97.1225 31.86C97.0292 31.74 96.9092 31.68 96.7625 31.68C96.4025 31.68 96.0025 31.94 95.5625 32.46C95.1358 32.98 94.7358 33.6533 94.3625 34.48C93.9892 35.2933 93.6958 36.1333 93.4825 37C93.3358 37.6267 93.1625 38.0533 92.9625 38.28C92.7758 38.4933 92.4758 38.6 92.0625 38.6C91.6492 38.6 91.3425 38.4533 91.1425 38.16C90.9558 37.8533 90.8292 37.3867 90.7625 36.76C90.6958 36.1333 90.6625 35.2133 90.6625 34C90.6625 31.9467 90.8692 29.8067 91.2825 27.58C91.7092 25.3533 92.3292 23.4867 93.1425 21.98C93.9692 20.46 94.9558 19.7 96.1025 19.7C96.7158 19.7 97.2092 19.9667 97.5825 20.5C97.9692 21.02 98.1625 21.7 98.1625 22.54C98.1625 23.8867 97.7692 25.2867 96.9825 26.74C96.1958 28.18 94.9158 29.8667 93.1425 31.8C93.1025 32.4933 93.0825 33.2067 93.0825 33.94C93.7225 32.2733 94.4558 31.0667 95.2825 30.32C96.1092 29.56 96.8825 29.18 97.6025 29.18C98.2692 29.18 98.8025 29.4067 99.2025 29.86C99.6158 30.3133 99.8225 30.8733 99.8225 31.54C99.8225 32.2733 99.6358 32.9467 99.2625 33.56C98.8892 34.1733 98.2492 34.72 97.3425 35.2C97.3958 35.56 97.5558 35.8533 97.8225 36.08C98.1025 36.2933 98.4358 36.4 98.8225 36.4C99.2358 36.4 99.6358 36.24 100.023 35.92C100.409 35.6 100.916 35.0667 101.543 34.32C101.703 34.1333 101.883 34.04 102.083 34.04ZM95.6825 21.68C95.4425 21.68 95.1758 22.0267 94.8825 22.72C94.5892 23.4 94.3025 24.3267 94.0225 25.5C93.7558 26.66 93.5358 27.9267 93.3625 29.3C94.1892 28.3267 94.8692 27.2667 95.4025 26.12C95.9492 24.9733 96.2225 23.9333 96.2225 23C96.2225 22.5733 96.1758 22.2467 96.0825 22.02C95.9892 21.7933 95.8558 21.68 95.6825 21.68Z" fill="#3B0D00"/>
<path d="M103.65 27.86C103.09 27.86 102.67 27.7333 102.39 27.48C102.11 27.2133 101.97 26.8467 101.97 26.38C101.97 25.9133 102.15 25.5267 102.51 25.22C102.884 24.9 103.344 24.74 103.89 24.74C104.384 24.74 104.784 24.86 105.09 25.1C105.397 25.34 105.55 25.68 105.55 26.12C105.55 26.6533 105.377 27.08 105.03 27.4C104.684 27.7067 104.224 27.86 103.65 27.86ZM103.49 38.6C102.624 38.6 101.99 38.2933 101.59 37.68C101.204 37.0667 101.01 36.2533 101.01 35.24C101.01 34.64 101.084 33.8733 101.23 32.94C101.39 31.9933 101.59 31.1133 101.83 30.3C101.95 29.8733 102.11 29.58 102.31 29.42C102.51 29.26 102.83 29.18 103.27 29.18C103.95 29.18 104.29 29.4067 104.29 29.86C104.29 30.1933 104.164 30.9667 103.91 32.18C103.59 33.6467 103.43 34.64 103.43 35.16C103.43 35.56 103.484 35.8667 103.59 36.08C103.697 36.2933 103.877 36.4 104.13 36.4C104.37 36.4 104.67 36.2333 105.03 35.9C105.39 35.5667 105.87 35.04 106.47 34.32C106.63 34.1333 106.81 34.04 107.01 34.04C107.184 34.04 107.317 34.12 107.41 34.28C107.517 34.44 107.57 34.66 107.57 34.94C107.57 35.4733 107.444 35.8867 107.19 36.18C105.87 37.7933 104.637 38.6 103.49 38.6ZM109.252 31.08C109.226 31.7467 109.212 32.2667 109.212 32.64C109.212 33.6 109.259 34.3533 109.352 34.9C109.459 35.4333 109.626 35.82 109.852 36.06C110.092 36.2867 110.419 36.4 110.832 36.4C111.046 36.4 111.299 36.3333 111.592 36.2C111.886 36.0667 112.152 35.8933 112.392 35.68C112.539 35.5467 112.686 35.48 112.832 35.48C112.992 35.48 113.119 35.5733 113.212 35.76C113.319 35.9333 113.372 36.1467 113.372 36.4C113.372 36.6533 113.319 36.9 113.212 37.14C113.119 37.38 112.972 37.58 112.772 37.74C112.079 38.3133 111.292 38.6 110.412 38.6C109.146 38.6 108.219 38.0733 107.632 37.02C107.046 35.9533 106.752 34.5667 106.752 32.86C106.752 32.2733 106.772 31.68 106.812 31.08H106.032C105.632 31.08 105.359 31.0067 105.212 30.86C105.079 30.7133 105.012 30.48 105.012 30.16C105.012 29.4133 105.312 29.04 105.912 29.04H107.052C107.279 27.5733 107.626 26.2333 108.092 25.02C108.559 23.8067 109.119 22.84 109.772 22.12C110.439 21.4 111.152 21.04 111.912 21.04C112.472 21.04 112.912 21.2867 113.232 21.78C113.552 22.2733 113.712 22.8933 113.712 23.64C113.712 25.7067 112.846 27.5067 111.112 29.04H113.352C113.566 29.04 113.719 29.0867 113.812 29.18C113.906 29.2733 113.952 29.4467 113.952 29.7C113.952 30.62 113.199 31.08 111.692 31.08H109.252ZM111.372 22.96C111.172 22.96 110.946 23.2133 110.692 23.72C110.452 24.2133 110.219 24.9067 109.992 25.8C109.779 26.68 109.599 27.66 109.452 28.74C110.239 28.06 110.826 27.3 111.212 26.46C111.612 25.6067 111.812 24.8333 111.812 24.14C111.812 23.3533 111.666 22.96 111.372 22.96Z" fill="#E67E22"/>
</svg>
