<svg width="28" height="29" viewBox="0 0 28 29" fill="none" xmlns="http://www.w3.org/2000/svg">
<path d="M21.2917 2.75391C22.4968 2.75391 23.5273 3.18179 24.383 4.03754C25.2388 4.8933 25.6667 5.92376 25.6667 7.12891V21.7122C25.6667 22.9174 25.2388 23.9478 24.383 24.8036C23.5273 25.6594 22.4968 26.0872 21.2917 26.0872H10.2782C11.139 24.8517 11.6859 23.7883 11.9188 22.8971C12.01 22.5528 12.2784 21.4945 12.724 19.7222C12.9366 20.1172 13.3088 20.4565 13.8405 20.74C14.3722 21.0236 14.9418 21.1654 15.5495 21.1654C17.3825 21.1654 18.8788 20.4185 20.0384 18.9247C21.198 17.4309 21.7778 15.5396 21.7778 13.2509C21.7778 12.4002 21.6005 11.5773 21.2461 10.7823C20.8916 9.98734 20.403 9.28349 19.7802 8.67079C19.1573 8.05809 18.3851 7.56691 17.4635 7.19727C16.542 6.82762 15.5444 6.64279 14.4709 6.64279C13.4177 6.64279 12.4328 6.78711 11.5163 7.07574C10.5997 7.36437 9.82501 7.75174 9.19205 8.23785C8.55909 8.72396 8.01475 9.27843 7.55902 9.90126C7.10329 10.5241 6.76656 11.1722 6.54882 11.8457C6.33109 12.5192 6.22222 13.1901 6.22222 13.8585C6.22222 14.8915 6.42223 15.8029 6.82226 16.5929C7.22229 17.3828 7.8122 17.9398 8.59201 18.2639C8.72366 18.3145 8.84266 18.3145 8.949 18.2639C9.05533 18.2133 9.12876 18.117 9.16927 17.9753C9.27054 17.5297 9.34649 17.2208 9.39713 17.0486C9.45789 16.8157 9.40219 16.603 9.23003 16.4106C8.72366 15.7827 8.47048 15.0231 8.47048 14.1319C8.47048 12.6128 8.99457 11.314 10.0427 10.2355C11.0909 9.1569 12.4606 8.61762 14.1519 8.61762C15.6609 8.61762 16.8382 9.02778 17.6838 9.84809C18.5294 10.6684 18.9523 11.7318 18.9523 13.0382C18.9523 14.7396 18.6105 16.1878 17.9269 17.3828C17.2433 18.5778 16.3647 19.1753 15.2912 19.1753C14.6836 19.1753 14.1924 18.9551 13.8177 18.5145C13.443 18.074 13.3265 17.5499 13.4683 16.9423C13.5493 16.5979 13.6835 16.1296 13.8709 15.5371C14.0582 14.9447 14.2076 14.4282 14.319 13.9876C14.4304 13.5471 14.4861 13.1698 14.4861 12.8559C14.4861 12.3597 14.3519 11.947 14.0835 11.6178C13.8152 11.2887 13.4329 11.1241 12.9366 11.1241C12.3189 11.1241 11.7948 11.4102 11.3644 11.9824C10.9339 12.5546 10.7187 13.261 10.7187 14.1016C10.7187 14.8307 10.8403 15.4434 11.0833 15.9397L9.59461 22.2287C9.35156 23.2415 9.31611 24.5276 9.48828 26.0872H6.70833C5.50318 26.0872 4.47272 25.6594 3.61697 24.8036C2.76121 23.9478 2.33333 22.9174 2.33333 21.7122V7.12891C2.33333 5.92376 2.76121 4.8933 3.61697 4.03754C4.47272 3.18179 5.50318 2.75391 6.70833 2.75391H21.2917Z" fill="#E67E22"/>
</svg>
