<svg width="16" height="17" viewBox="0 0 16 17" fill="none" xmlns="http://www.w3.org/2000/svg">
<path d="M3.41 10.7875V12.7045C3.99572 13.4225 4.73397 14.001 5.57115 14.398C6.40833 14.7951 7.32344 15.0007 8.25 15C10.412 15 12.318 13.902 13.44 12.2335V9.54651C13.056 12.068 10.8785 14 8.25 14C6.073 14 4.2055 12.675 3.41 10.7875ZM12.515 5.68801V4.82701C12.5133 4.6371 12.5445 4.44833 12.607 4.26901C11.4415 3.13282 9.87766 2.49788 8.25 2.50001C6.79343 2.49784 5.38222 3.00653 4.262 3.93751L4.2645 3.96801L4.265 3.98151V5.33151C4.75749 4.75646 5.36874 4.29496 6.05667 3.97879C6.74461 3.66261 7.49289 3.49927 8.25 3.50001C10.007 3.50001 11.562 4.36301 12.515 5.68801Z" fill="#3B0D00"/>
<path d="M12.25 8.75039C12.25 9.81126 11.8286 10.8287 11.0784 11.5788C10.3283 12.329 9.31087 12.7504 8.25 12.7504C7.18913 12.7504 6.17172 12.329 5.42157 11.5788C4.67143 10.8287 4.25 9.81126 4.25 8.75039C4.25 7.68953 4.67143 6.67211 5.42157 5.92196C6.17172 5.17182 7.18913 4.75039 8.25 4.75039C9.31087 4.75039 10.3283 5.17182 11.0784 5.92196C11.8286 6.67211 12.25 7.68953 12.25 8.75039ZM8.25 12.2504C8.70963 12.2504 9.16475 12.1599 9.58939 11.984C10.014 11.8081 10.3999 11.5503 10.7249 11.2253C11.0499 10.9003 11.3077 10.5144 11.4836 10.0898C11.6595 9.66514 11.75 9.21002 11.75 8.75039C11.75 8.29076 11.6595 7.83564 11.4836 7.411C11.3077 6.98636 11.0499 6.60052 10.7249 6.27552C10.3999 5.95051 10.014 5.6927 9.58939 5.51681C9.16475 5.34092 8.70963 5.25039 8.25 5.25039C7.32174 5.25039 6.4315 5.61914 5.77513 6.27552C5.11875 6.9319 4.75 7.82213 4.75 8.75039C4.75 9.67865 5.11875 10.5689 5.77513 11.2253C6.4315 11.8816 7.32174 12.2504 8.25 12.2504ZM14.995 4.47039C14.995 4.02039 14.63 3.65539 14.18 3.65539C13.53 3.65539 13.01 4.18039 13.015 4.82539V7.60039C13.015 8.22689 13.378 8.78789 13.94 9.04189V13.3504C13.94 13.6104 14.15 13.8204 14.41 13.8204H14.525C14.785 13.8204 14.995 13.6104 14.995 13.3504V4.47039ZM3.41 3.65539C3.31983 3.65539 3.23335 3.69121 3.16958 3.75497C3.10582 3.81874 3.07 3.90522 3.07 3.99539V5.34039C3.07 5.44039 2.99 5.51539 2.895 5.51539C2.795 5.51539 2.72 5.43539 2.72 5.34039V4.01039C2.72 3.82539 2.575 3.66039 2.39 3.65539C2.195 3.65039 2.035 3.80539 2.035 3.99539V5.34039C2.035 5.44039 1.955 5.51539 1.86 5.51539C1.76 5.51539 1.685 5.43539 1.685 5.34039V4.01039C1.685 3.82539 1.54 3.66039 1.355 3.65539C1.16 3.65039 1 3.80539 1 3.99539V6.28539C1 6.73639 1.2185 7.13889 1.5545 7.38989C1.855 7.55939 1.855 8.33539 1.855 8.33539V13.3454C1.855 13.6054 2.065 13.8154 2.325 13.8154H2.44C2.7 13.8154 2.91 13.6054 2.91 13.3454V8.33539C2.91 8.33539 2.91 7.58989 3.2105 7.38989C3.38242 7.26156 3.52205 7.09491 3.6183 6.90318C3.71456 6.71146 3.76479 6.49993 3.765 6.28539V3.99539C3.75994 3.90428 3.72046 3.81849 3.65456 3.75537C3.58866 3.69225 3.50125 3.65652 3.41 3.65539Z" fill="#3B0D00"/>
</svg>
