<svg width="28" height="29" viewBox="0 0 28 29" fill="none" xmlns="http://www.w3.org/2000/svg">
<path d="M22.8887 2.75391H5.1113C4.37475 2.75459 3.66856 3.04749 3.14774 3.56831C2.62692 4.08913 2.33402 4.79532 2.33333 5.53187V23.3093C2.33333 24.8428 3.57907 26.0872 5.1113 26.0872H22.8887C23.6253 26.0866 24.3314 25.7937 24.8523 25.2728C25.3731 24.752 25.666 24.0458 25.6667 23.3093V5.53187C25.666 4.79532 25.3731 4.08913 24.8523 3.56831C24.3314 3.04749 23.6253 2.75459 22.8887 2.75391ZM20.6694 12.9337C19.8518 13.0131 19.0291 12.8456 18.3076 12.4528C17.699 12.1247 17.1821 11.6497 16.8039 11.0709V17.4798C16.8039 18.4167 16.5261 19.3324 16.0056 20.1114C15.4851 20.8903 14.7454 21.4974 13.8799 21.8559C13.0144 22.2144 12.062 22.3082 11.1431 22.1255C10.2243 21.9427 9.38033 21.4916 8.71789 20.8292C8.05546 20.1667 7.60433 19.3227 7.42157 18.4039C7.2388 17.4851 7.33261 16.5327 7.69111 15.6672C8.04962 14.8017 8.65673 14.0619 9.43567 13.5414C10.2146 13.021 11.1304 12.7432 12.0672 12.7432C12.1657 12.7432 12.2617 12.7522 12.3589 12.7574V15.0921C12.2617 15.0804 12.167 15.0622 12.0672 15.0622C11.426 15.0622 10.8111 15.3169 10.3577 15.7703C9.90434 16.2237 9.64963 16.8386 9.64963 17.4798C9.64963 18.121 9.90434 18.7359 10.3577 19.1893C10.8111 19.6427 11.426 19.8974 12.0672 19.8974C13.4024 19.8974 14.582 18.8461 14.582 17.5109L14.6054 6.62465H16.8389C16.9411 7.59483 17.381 8.49826 18.0816 9.17709C18.7822 9.85593 19.6991 10.267 20.672 10.3385V12.9337" fill="#E67E22"/>
</svg>
