<svg width="28" height="29" viewBox="0 0 28 29" fill="none" xmlns="http://www.w3.org/2000/svg">
<path d="M25.655 8.05874C25.6442 7.55827 25.604 7.05886 25.5348 6.56307C25.4512 6.12215 25.3087 5.69444 25.1113 5.29141C24.6797 4.43878 23.9874 3.74604 23.135 3.31391C22.7345 3.11758 22.3096 2.97555 21.8715 2.89157C21.3719 2.82114 20.8686 2.78024 20.3642 2.76907C20.1507 2.76091 19.8742 2.75741 19.7458 2.75741L8.2565 2.75391C8.12817 2.75391 7.85167 2.75741 7.63817 2.76557C7.1377 2.77642 6.63829 2.81655 6.1425 2.88574C5.70158 2.96939 5.27387 3.11183 4.87084 3.30924C4.01821 3.74087 3.32547 4.4332 2.89334 5.28557C2.69701 5.68609 2.55498 6.111 2.471 6.54907C2.40018 7.04865 2.35889 7.55197 2.34734 8.05641C2.34034 8.26991 2.33567 8.54641 2.33567 8.67474L2.33334 20.1641C2.33334 20.2924 2.33684 20.5689 2.345 20.7824C2.35585 21.2829 2.39598 21.7823 2.46517 22.2781C2.54882 22.719 2.69126 23.1467 2.88867 23.5497C3.3203 24.4024 4.01263 25.0951 4.865 25.5272C5.26552 25.7236 5.69043 25.8656 6.1285 25.9496C6.6281 26.02 7.13142 26.0609 7.63584 26.0721C7.84934 26.0802 8.12584 26.0837 8.25417 26.0837L19.7435 26.0861C19.8718 26.0861 20.1483 26.0826 20.3618 26.0744C20.8623 26.0636 21.3617 26.0234 21.8575 25.9542C22.2984 25.8706 22.7261 25.7282 23.1292 25.5307C23.9822 25.0993 24.6754 24.407 25.1078 23.5544C25.3042 23.1539 25.4462 22.729 25.5302 22.2909C25.601 21.7913 25.6423 21.288 25.6538 20.7836C25.6608 20.5701 25.6655 20.2936 25.6655 20.1652L25.6667 8.67707C25.6667 8.54874 25.6632 8.27224 25.655 8.05874ZM14.2532 22.5371H14.2497C12.8608 22.5381 11.4939 22.1899 10.2748 21.5244L5.86484 22.6806L7.0455 18.3721C6.13136 16.7858 5.7661 14.9422 6.00635 13.1272C6.2466 11.3122 7.07893 9.62712 8.3743 8.33329C9.66968 7.03946 11.3557 6.20913 13.171 5.97104C14.9863 5.73295 16.8294 6.10041 18.4147 7.01643C19.9999 7.93246 21.2386 9.34587 21.9388 11.0375C22.6389 12.7292 22.7614 14.6046 22.2873 16.373C21.8131 18.1414 20.7688 19.7039 19.3163 20.8184C17.8637 21.9329 16.084 22.537 14.2532 22.5371Z" fill="#E67E22"/>
<path d="M14.2567 7.3039C13.0213 7.30354 11.8083 7.63416 10.744 8.26137C9.67965 8.88858 8.80278 9.78948 8.20456 10.8704C7.60635 11.9513 7.30864 13.1727 7.3424 14.4077C7.37615 15.6426 7.74014 16.846 8.3965 17.8926L8.561 18.1539L7.86217 20.7042L10.479 20.0182L10.731 20.1676C11.7959 20.7994 13.0115 21.1323 14.2497 21.1312H14.2532C16.0869 21.1315 17.8457 20.4034 19.1426 19.1069C20.4395 17.8105 21.1683 16.0519 21.1686 14.2182C21.1689 12.3844 20.4407 10.6256 19.1443 9.3287C17.8478 8.0318 16.0893 7.30304 14.2555 7.30273L14.2567 7.3039ZM18.3213 17.1856C18.1686 17.4383 17.9652 17.6566 17.7238 17.8267C17.4824 17.9968 17.2084 18.115 16.919 18.1737C16.4823 18.2488 16.034 18.2208 15.61 18.0921C15.2076 17.9673 14.8123 17.8209 14.4258 17.6534C12.9905 16.9331 11.7671 15.852 10.8757 14.5162C10.3892 13.898 10.094 13.151 10.0263 12.3672C10.0209 12.0438 10.0829 11.7227 10.2082 11.4245C10.3335 11.1262 10.5195 10.8573 10.7543 10.6347C10.824 10.5558 10.9091 10.492 11.0045 10.4472C11.0998 10.4025 11.2033 10.3777 11.3085 10.3746C11.4462 10.3746 11.585 10.3746 11.7063 10.3816C11.8347 10.3874 12.005 10.3326 12.173 10.7386C12.348 11.1539 12.7633 12.1771 12.8147 12.2809C12.8474 12.3354 12.8662 12.3972 12.8692 12.4607C12.8723 12.5242 12.8595 12.5875 12.8322 12.6449C12.7801 12.7698 12.7101 12.8865 12.6245 12.9914C12.5195 13.1127 12.4063 13.2621 12.313 13.3554C12.208 13.4592 12.1007 13.5712 12.2208 13.7789C12.5334 14.313 12.923 14.7981 13.377 15.2186C13.8706 15.6562 14.4362 16.0052 15.0488 16.2499C15.2565 16.3549 15.3778 16.3362 15.4992 16.1974C15.6205 16.0586 16.0183 15.5907 16.1572 15.3831C16.296 15.1754 16.4337 15.2104 16.6238 15.2792C16.814 15.3481 17.8372 15.8509 18.0448 15.9559C18.2525 16.0609 18.3913 16.1111 18.4427 16.1974C18.4987 16.5316 18.4566 16.8749 18.3213 17.1856Z" fill="#E67E22"/>
</svg>
