<svg width="28" height="29" viewBox="0 0 28 29" fill="none" xmlns="http://www.w3.org/2000/svg">
<path d="M20.1979 2.75391H7.80208C4.78177 2.75391 2.33333 5.20235 2.33333 8.22266V20.6185C2.33333 23.6388 4.78177 26.0872 7.80208 26.0872H20.1979C23.2182 26.0872 25.6667 23.6388 25.6667 20.6185V8.22266C25.6667 5.20235 23.2182 2.75391 20.1979 2.75391Z" fill="#E67E22"/>
<mask id="mask0_115_901" style="mask-type:luminance" maskUnits="userSpaceOnUse" x="5" y="6" width="18" height="17">
<path d="M5.83333 6.25391H22.1667V22.5872H5.83333V6.25391Z" fill="white"/>
</mask>
<g mask="url(#mask0_115_901)">
<path d="M18.6958 6.20312H21.2007L15.729 13.1211L22.1667 22.5365H17.1267L13.1763 16.8273L8.66133 22.5365H6.15416L12.0062 15.1344L5.83333 6.20441H11.0017L14.567 11.4219L18.6958 6.20312ZM17.815 20.8784H19.2033L10.2433 7.77492H8.75466L17.815 20.8784Z" fill="white"/>
</g>
</svg>
